<svg width="343" height="92" viewBox="0 0 343 92" fill="none" xmlns="http://www.w3.org/2000/svg">
<path d="M1.0177 1.47937H343" stroke="#292929" stroke-opacity="0.08" stroke-width="1.0178" stroke-dasharray="2.04 2.04"/>
<path d="M1.0177 24.8889H343" stroke="#292929" stroke-opacity="0.08" stroke-width="1.0178" stroke-dasharray="2.04 2.04"/>
<path d="M1.0177 48.2985H343" stroke="#292929" stroke-opacity="0.08" stroke-width="1.0178" stroke-dasharray="2.04 2.04"/>
<path d="M1.0177 71.7076H341.982" stroke="#8099FF" stroke-width="1.0178" stroke-dasharray="2.04 2.04"/>
<path d="M3.57249 8.19202C4.39284 8.19202 5.08529 8.37726 5.64983 8.74775C6.21437 9.10941 6.64219 9.63425 6.93328 10.3223C7.22437 11.0103 7.36992 11.8439 7.36992 12.823C7.36992 13.8639 7.18909 14.7416 6.82743 15.4561C6.47459 16.1706 5.98062 16.7087 5.34551 17.0703C4.7104 17.432 3.97385 17.6128 3.13586 17.6128C2.72127 17.6128 2.32433 17.5731 1.94502 17.4937C1.57454 17.4143 1.23935 17.2864 0.939433 17.11L1.32315 16.3426C1.56131 16.5014 1.83476 16.6161 2.1435 16.6866C2.46105 16.7484 2.78743 16.7792 3.12262 16.7792C4.11939 16.7792 4.91328 16.4617 5.50429 15.8266C6.10411 15.1915 6.40402 14.2432 6.40402 12.9818C6.40402 12.7789 6.39079 12.5364 6.36433 12.2541C6.34669 11.9718 6.29817 11.6895 6.21878 11.4073L6.54957 11.6587C6.46136 12.1174 6.27171 12.5099 5.98062 12.8363C5.69835 13.1538 5.34551 13.3964 4.9221 13.564C4.50752 13.7316 4.04441 13.8154 3.5328 13.8154C2.92415 13.8154 2.38166 13.7007 1.90533 13.4714C1.43782 13.242 1.07175 12.9201 0.807119 12.5055C0.54249 12.0909 0.410175 11.6013 0.410175 11.0368C0.410175 10.4546 0.5469 9.95181 0.82035 9.5284C1.0938 9.10499 1.46869 8.77862 1.94502 8.54927C2.43018 8.31111 2.97267 8.19202 3.57249 8.19202ZM3.61219 8.99914C3.17114 8.99914 2.77861 9.08294 2.43459 9.25054C2.09939 9.40932 1.83476 9.63866 1.6407 9.93858C1.44664 10.2385 1.34961 10.5957 1.34961 11.0103C1.34961 11.619 1.5569 12.1041 1.97149 12.4658C2.39489 12.8274 2.96385 13.0083 3.67834 13.0083C4.15468 13.0083 4.56926 12.9201 4.9221 12.7436C5.28376 12.5672 5.56162 12.3246 5.75568 12.0159C5.95857 11.7072 6.06001 11.3632 6.06001 10.9839C6.06001 10.6398 5.96739 10.3179 5.78215 10.018C5.59691 9.71805 5.32346 9.47548 4.9618 9.29024C4.60014 9.09617 4.15027 8.99914 3.61219 8.99914ZM12.4425 17.6128C11.728 17.6128 11.0929 17.4276 10.5372 17.0571C9.98148 16.6778 9.54484 16.1397 9.22729 15.4429C8.90973 14.7372 8.75095 13.8904 8.75095 12.9024C8.75095 11.9145 8.90973 11.0721 9.22729 10.3752C9.54484 9.66954 9.98148 9.13146 10.5372 8.76098C11.0929 8.38168 11.728 8.19202 12.4425 8.19202C13.157 8.19202 13.7921 8.38168 14.3479 8.76098C14.9036 9.13146 15.3402 9.66954 15.6578 10.3752C15.9841 11.0721 16.1473 11.9145 16.1473 12.9024C16.1473 13.8904 15.9841 14.7372 15.6578 15.4429C15.3402 16.1397 14.9036 16.6778 14.3479 17.0571C13.7921 17.4276 13.157 17.6128 12.4425 17.6128ZM12.4425 16.7395C12.9894 16.7395 13.4658 16.594 13.8715 16.3029C14.2773 16.003 14.5948 15.5708 14.8242 15.0062C15.0535 14.4329 15.1682 13.7316 15.1682 12.9024C15.1682 12.0733 15.0535 11.3764 14.8242 10.8119C14.5948 10.2385 14.2773 9.80626 13.8715 9.51517C13.4658 9.21526 12.9894 9.0653 12.4425 9.0653C11.9133 9.0653 11.4413 9.21526 11.0268 9.51517C10.6122 9.80626 10.2902 10.2385 10.0609 10.8119C9.83152 11.3764 9.71685 12.0733 9.71685 12.9024C9.71685 13.7316 9.83152 14.4329 10.0609 15.0062C10.2902 15.5708 10.6122 16.003 11.0268 16.3029C11.4413 16.594 11.9133 16.7395 12.4425 16.7395ZM21.2032 17.6128C20.4887 17.6128 19.8536 17.4276 19.2979 17.0571C18.7422 16.6778 18.3055 16.1397 17.988 15.4429C17.6704 14.7372 17.5116 13.8904 17.5116 12.9024C17.5116 11.9145 17.6704 11.0721 17.988 10.3752C18.3055 9.66954 18.7422 9.13146 19.2979 8.76098C19.8536 8.38168 20.4887 8.19202 21.2032 8.19202C21.9177 8.19202 22.5528 8.38168 23.1085 8.76098C23.6643 9.13146 24.1009 9.66954 24.4184 10.3752C24.7448 11.0721 24.908 11.9145 24.908 12.9024C24.908 13.8904 24.7448 14.7372 24.4184 15.4429C24.1009 16.1397 23.6643 16.6778 23.1085 17.0571C22.5528 17.4276 21.9177 17.6128 21.2032 17.6128ZM21.2032 16.7395C21.7501 16.7395 22.2264 16.594 22.6322 16.3029C23.038 16.003 23.3555 15.5708 23.5849 15.0062C23.8142 14.4329 23.9289 13.7316 23.9289 12.9024C23.9289 12.0733 23.8142 11.3764 23.5849 10.8119C23.3555 10.2385 23.038 9.80626 22.6322 9.51517C22.2264 9.21526 21.7501 9.0653 21.2032 9.0653C20.6739 9.0653 20.202 9.21526 19.7874 9.51517C19.3728 9.80626 19.0509 10.2385 18.8215 10.8119C18.5922 11.3764 18.4775 12.0733 18.4775 12.9024C18.4775 13.7316 18.5922 14.4329 18.8215 15.0062C19.0509 15.5708 19.3728 16.003 19.7874 16.3029C20.202 16.594 20.6739 16.7395 21.2032 16.7395ZM31.115 17.6128C30.4182 17.6128 29.7742 17.4981 29.1832 17.2688C28.5922 17.0306 28.0806 16.6999 27.6484 16.2764C27.2161 15.853 26.8765 15.3547 26.6295 14.7813C26.3914 14.2079 26.2723 13.5816 26.2723 12.9024C26.2723 12.2232 26.3914 11.5969 26.6295 11.0236C26.8765 10.4502 27.2161 9.95181 27.6484 9.5284C28.0894 9.10499 28.6054 8.77862 29.1964 8.54927C29.7875 8.31111 30.4314 8.19202 31.1282 8.19202C31.7986 8.19202 32.4293 8.3067 33.0203 8.53604C33.6113 8.75657 34.1097 9.09176 34.5155 9.54163L33.8936 10.1635C33.5143 9.77539 33.0953 9.49753 32.6366 9.32993C32.1779 9.15351 31.684 9.0653 31.1547 9.0653C30.599 9.0653 30.083 9.16233 29.6066 9.35639C29.1303 9.54163 28.7157 9.81067 28.3629 10.1635C28.01 10.5075 27.7322 10.9133 27.5293 11.3808C27.3352 11.8395 27.2382 12.3467 27.2382 12.9024C27.2382 13.4581 27.3352 13.9698 27.5293 14.4373C27.7322 14.896 28.01 15.3017 28.3629 15.6546C28.7157 15.9986 29.1303 16.2676 29.6066 16.4617C30.083 16.6469 30.599 16.7395 31.1547 16.7395C31.684 16.7395 32.1779 16.6513 32.6366 16.4749C33.0953 16.2985 33.5143 16.0162 33.8936 15.6281L34.5155 16.25C34.1097 16.6999 33.6113 17.0395 33.0203 17.2688C32.4293 17.4981 31.7942 17.6128 31.115 17.6128ZM34.8882 17.5334L39.1223 8.27141H40.0882L44.3223 17.5334H43.2902L39.4002 8.84037H39.7971L35.9071 17.5334H34.8882ZM36.5554 15.0591L36.8465 14.2653H42.2317L42.5228 15.0591H36.5554ZM45.8544 17.5334V8.27141H46.8336V16.6866H52.0203V17.5334H45.8544Z" fill="#2C2B2B"/>
<path d="M4.0763 88.7968V80.6137L4.46714 81.029H2.06105V80.2473H4.95568V88.7968H4.0763ZM6.84059 88.7968V88.1739L10.3948 84.6931C10.7205 84.3755 10.9647 84.0987 11.1276 83.8625C11.2904 83.6183 11.4004 83.3903 11.4574 83.1786C11.5144 82.9669 11.5428 82.7674 11.5428 82.5801C11.5428 82.0834 11.3719 81.6926 11.0299 81.4076C10.696 81.1226 10.1993 80.9801 9.53981 80.9801C9.03498 80.9801 8.58715 81.0575 8.19631 81.2122C7.81361 81.3669 7.48385 81.6071 7.207 81.9328L6.58411 81.3954C6.91795 81.0045 7.34542 80.7033 7.86654 80.4916C8.38766 80.2799 8.96984 80.174 9.61309 80.174C10.1912 80.174 10.692 80.2676 11.1154 80.4549C11.5388 80.6341 11.8645 80.8987 12.0925 81.2488C12.3286 81.5989 12.4467 82.0101 12.4467 82.4824C12.4467 82.7592 12.4059 83.032 12.3245 83.3007C12.2512 83.5694 12.1128 83.8544 11.9093 84.1557C11.7138 84.4488 11.4248 84.7826 11.0421 85.1572L7.78105 88.3572L7.53677 88.0152H12.8375V88.7968H6.84059ZM14.6007 83.6549C14.4215 83.6549 14.2668 83.5898 14.1365 83.4595C14.0144 83.3292 13.9533 83.1704 13.9533 82.9831C13.9533 82.7877 14.0144 82.629 14.1365 82.5068C14.2668 82.3847 14.4215 82.3236 14.6007 82.3236C14.7798 82.3236 14.9304 82.3847 15.0526 82.5068C15.1828 82.629 15.248 82.7877 15.248 82.9831C15.248 83.1704 15.1828 83.3292 15.0526 83.4595C14.9304 83.5898 14.7798 83.6549 14.6007 83.6549ZM14.6007 88.8579C14.4215 88.8579 14.2668 88.7928 14.1365 88.6625C14.0144 88.5322 13.9533 88.3734 13.9533 88.1862C13.9533 87.9907 14.0144 87.832 14.1365 87.7098C14.2668 87.5877 14.4215 87.5266 14.6007 87.5266C14.7798 87.5266 14.9304 87.5877 15.0526 87.7098C15.1828 87.832 15.248 87.9907 15.248 88.1862C15.248 88.3734 15.1828 88.5322 15.0526 88.6625C14.9304 88.7928 14.7798 88.8579 14.6007 88.8579ZM19.937 88.8701C19.2774 88.8701 18.6912 88.6991 18.1782 88.3572C17.6652 88.007 17.2622 87.5103 16.9691 86.8671C16.6759 86.2157 16.5294 85.434 16.5294 84.5221C16.5294 83.6101 16.6759 82.8325 16.9691 82.1893C17.2622 81.5379 17.6652 81.0412 18.1782 80.6992C18.6912 80.3491 19.2774 80.174 19.937 80.174C20.5965 80.174 21.1828 80.3491 21.6957 80.6992C22.2087 81.0412 22.6118 81.5379 22.9049 82.1893C23.2062 82.8325 23.3568 83.6101 23.3568 84.5221C23.3568 85.434 23.2062 86.2157 22.9049 86.8671C22.6118 87.5103 22.2087 88.007 21.6957 88.3572C21.1828 88.6991 20.5965 88.8701 19.937 88.8701ZM19.937 88.064C20.4418 88.064 20.8815 87.9297 21.256 87.661C21.6306 87.3841 21.9237 86.9852 22.1354 86.464C22.3471 85.9348 22.453 85.2875 22.453 84.5221C22.453 83.7567 22.3471 83.1134 22.1354 82.5923C21.9237 82.0631 21.6306 81.6641 21.256 81.3954C20.8815 81.1185 20.4418 80.9801 19.937 80.9801C19.4484 80.9801 19.0128 81.1185 18.6301 81.3954C18.2474 81.6641 17.9502 82.0631 17.7385 82.5923C17.5268 83.1134 17.421 83.7567 17.421 84.5221C17.421 85.2875 17.5268 85.9348 17.7385 86.464C17.9502 86.9852 18.2474 87.3841 18.6301 87.661C19.0128 87.9297 19.4484 88.064 19.937 88.064ZM28.0237 88.8701C27.3642 88.8701 26.7779 88.6991 26.265 88.3572C25.752 88.007 25.349 87.5103 25.0558 86.8671C24.7627 86.2157 24.6161 85.434 24.6161 84.5221C24.6161 83.6101 24.7627 82.8325 25.0558 82.1893C25.349 81.5379 25.752 81.0412 26.265 80.6992C26.7779 80.3491 27.3642 80.174 28.0237 80.174C28.6833 80.174 29.2695 80.3491 29.7825 80.6992C30.2955 81.0412 30.6985 81.5379 30.9917 82.1893C31.2929 82.8325 31.4436 83.6101 31.4436 84.5221C31.4436 85.434 31.2929 86.2157 30.9917 86.8671C30.6985 87.5103 30.2955 88.007 29.7825 88.3572C29.2695 88.6991 28.6833 88.8701 28.0237 88.8701ZM28.0237 88.064C28.5286 88.064 28.9683 87.9297 29.3428 87.661C29.7174 87.3841 30.0105 86.9852 30.2222 86.464C30.4339 85.9348 30.5398 85.2875 30.5398 84.5221C30.5398 83.7567 30.4339 83.1134 30.2222 82.5923C30.0105 82.0631 29.7174 81.6641 29.3428 81.3954C28.9683 81.1185 28.5286 80.9801 28.0237 80.9801C27.5352 80.9801 27.0996 81.1185 26.7169 81.3954C26.3342 81.6641 26.037 82.0631 25.8253 82.5923C25.6136 83.1134 25.5077 83.7567 25.5077 84.5221C25.5077 85.2875 25.6136 85.9348 25.8253 86.464C26.037 86.9852 26.3342 87.3841 26.7169 87.661C27.0996 87.9297 27.5352 88.064 28.0237 88.064Z" fill="#2C2B2B"/>
<path d="M88.0352 88.8701C87.278 88.8701 86.6388 88.7032 86.1177 88.3694C85.5966 88.0274 85.2017 87.5388 84.933 86.9037C84.6643 86.2605 84.5299 85.491 84.5299 84.5953C84.5299 83.6264 84.6928 82.8162 85.0185 82.1648C85.3523 81.5053 85.8123 81.0086 86.3986 80.6748C86.9849 80.3409 87.6647 80.174 88.4383 80.174C88.821 80.174 89.1874 80.2106 89.5375 80.2839C89.8876 80.3572 90.197 80.4753 90.4657 80.6381L90.1115 81.3465C89.8917 81.2 89.6393 81.0982 89.3543 81.0412C89.0693 80.976 88.768 80.9435 88.4505 80.9435C87.5304 80.9435 86.7935 81.2366 86.2398 81.8228C85.6943 82.4091 85.4215 83.2844 85.4215 84.4488C85.4215 84.6279 85.4296 84.8518 85.4459 85.1205C85.4704 85.3811 85.5192 85.6417 85.5925 85.9022L85.2872 85.6701C85.3767 85.2467 85.5518 84.8885 85.8123 84.5953C86.0729 84.2941 86.3986 84.0661 86.7894 83.9114C87.1803 83.7567 87.6077 83.6793 88.0719 83.6793C88.6418 83.6793 89.1426 83.7852 89.5741 83.9969C90.0057 84.2086 90.3436 84.5058 90.5879 84.8885C90.8322 85.2712 90.9543 85.7231 90.9543 86.2442C90.9543 86.7734 90.8281 87.2376 90.5757 87.6365C90.3233 88.0274 89.9731 88.3327 89.5253 88.5526C89.0856 88.7643 88.5889 88.8701 88.0352 88.8701ZM87.9986 88.1251C88.4057 88.1251 88.764 88.0518 89.0734 87.9052C89.3909 87.7505 89.6393 87.5348 89.8184 87.2579C89.9976 86.9729 90.0871 86.6432 90.0871 86.2686C90.0871 85.7068 89.8917 85.259 89.5009 84.9251C89.1182 84.5913 88.5971 84.4244 87.9375 84.4244C87.4978 84.4244 87.1151 84.5058 86.7894 84.6686C86.4637 84.8315 86.2072 85.0554 86.02 85.3404C85.8327 85.6172 85.7391 85.9348 85.7391 86.293C85.7391 86.6025 85.8246 86.8997 85.9955 87.1846C86.1665 87.4615 86.419 87.6895 86.7528 87.8686C87.0948 88.0396 87.51 88.1251 87.9986 88.1251ZM92.6321 83.6549C92.453 83.6549 92.2983 83.5898 92.168 83.4595C92.0459 83.3292 91.9848 83.1704 91.9848 82.9831C91.9848 82.7877 92.0459 82.629 92.168 82.5068C92.2983 82.3847 92.453 82.3236 92.6321 82.3236C92.8113 82.3236 92.9619 82.3847 93.084 82.5068C93.2143 82.629 93.2795 82.7877 93.2795 82.9831C93.2795 83.1704 93.2143 83.3292 93.084 83.4595C92.9619 83.5898 92.8113 83.6549 92.6321 83.6549ZM92.6321 88.8579C92.453 88.8579 92.2983 88.7928 92.168 88.6625C92.0459 88.5322 91.9848 88.3734 91.9848 88.1862C91.9848 87.9907 92.0459 87.832 92.168 87.7098C92.2983 87.5877 92.453 87.5266 92.6321 87.5266C92.8113 87.5266 92.9619 87.5877 93.084 87.7098C93.2143 87.832 93.2795 87.9907 93.2795 88.1862C93.2795 88.3734 93.2143 88.5322 93.084 88.6625C92.9619 88.7928 92.8113 88.8579 92.6321 88.8579ZM97.9685 88.8701C97.3089 88.8701 96.7227 88.6991 96.2097 88.3572C95.6967 88.007 95.2937 87.5103 95.0005 86.8671C94.7074 86.2157 94.5608 85.434 94.5608 84.5221C94.5608 83.6101 94.7074 82.8325 95.0005 82.1893C95.2937 81.5379 95.6967 81.0412 96.2097 80.6992C96.7227 80.3491 97.3089 80.174 97.9685 80.174C98.628 80.174 99.2142 80.3491 99.7272 80.6992C100.24 81.0412 100.643 81.5379 100.936 82.1893C101.238 82.8325 101.388 83.6101 101.388 84.5221C101.388 85.434 101.238 86.2157 100.936 86.8671C100.643 87.5103 100.24 88.007 99.7272 88.3572C99.2142 88.6991 98.628 88.8701 97.9685 88.8701ZM97.9685 88.064C98.4733 88.064 98.913 87.9297 99.2875 87.661C99.6621 87.3841 99.9552 86.9852 100.167 86.464C100.379 85.9348 100.484 85.2875 100.484 84.5221C100.484 83.7567 100.379 83.1134 100.167 82.5923C99.9552 82.0631 99.6621 81.6641 99.2875 81.3954C98.913 81.1185 98.4733 80.9801 97.9685 80.9801C97.4799 80.9801 97.0443 81.1185 96.6616 81.3954C96.2789 81.6641 95.9817 82.0631 95.77 82.5923C95.5583 83.1134 95.4524 83.7567 95.4524 84.5221C95.4524 85.2875 95.5583 85.9348 95.77 86.464C95.9817 86.9852 96.2789 87.3841 96.6616 87.661C97.0443 87.9297 97.4799 88.064 97.9685 88.064ZM106.055 88.8701C105.396 88.8701 104.809 88.6991 104.296 88.3572C103.783 88.007 103.38 87.5103 103.087 86.8671C102.794 86.2157 102.648 85.434 102.648 84.5221C102.648 83.6101 102.794 82.8325 103.087 82.1893C103.38 81.5379 103.783 81.0412 104.296 80.6992C104.809 80.3491 105.396 80.174 106.055 80.174C106.715 80.174 107.301 80.3491 107.814 80.6992C108.327 81.0412 108.73 81.5379 109.023 82.1893C109.324 82.8325 109.475 83.6101 109.475 84.5221C109.475 85.434 109.324 86.2157 109.023 86.8671C108.73 87.5103 108.327 88.007 107.814 88.3572C107.301 88.6991 106.715 88.8701 106.055 88.8701ZM106.055 88.064C106.56 88.064 107 87.9297 107.374 87.661C107.749 87.3841 108.042 86.9852 108.254 86.464C108.465 85.9348 108.571 85.2875 108.571 84.5221C108.571 83.7567 108.465 83.1134 108.254 82.5923C108.042 82.0631 107.749 81.6641 107.374 81.3954C107 81.1185 106.56 80.9801 106.055 80.9801C105.567 80.9801 105.131 81.1185 104.748 81.3954C104.366 81.6641 104.068 82.0631 103.857 82.5923C103.645 83.1134 103.539 83.7567 103.539 84.5221C103.539 85.2875 103.645 85.9348 103.857 86.464C104.068 86.9852 104.366 87.3841 104.748 87.661C105.131 87.9297 105.567 88.064 106.055 88.064Z" fill="#2C2B2B"/>
<path d="M168.939 88.7968V80.6137L169.33 81.029H166.924V80.2473H169.819V88.7968H168.939ZM171.704 88.7968V88.1739L175.258 84.6931C175.584 84.3755 175.828 84.0987 175.991 83.8625C176.154 83.6183 176.263 83.3903 176.32 83.1786C176.377 82.9669 176.406 82.7674 176.406 82.5801C176.406 82.0834 176.235 81.6926 175.893 81.4076C175.559 81.1226 175.062 80.9801 174.403 80.9801C173.898 80.9801 173.45 81.0575 173.059 81.2122C172.677 81.3669 172.347 81.6071 172.07 81.9328L171.447 81.3954C171.781 81.0045 172.208 80.7033 172.73 80.4916C173.251 80.2799 173.833 80.174 174.476 80.174C175.054 80.174 175.555 80.2676 175.978 80.4549C176.402 80.6341 176.728 80.8987 176.956 81.2488C177.192 81.5989 177.31 82.0101 177.31 82.4824C177.31 82.7592 177.269 83.032 177.188 83.3007C177.114 83.5694 176.976 83.8544 176.772 84.1557C176.577 84.4488 176.288 84.7826 175.905 85.1572L172.644 88.3572L172.4 88.0152H177.701V88.7968H171.704ZM179.464 83.6549C179.285 83.6549 179.13 83.5898 179 83.4595C178.877 83.3292 178.816 83.1704 178.816 82.9831C178.816 82.7877 178.877 82.629 179 82.5068C179.13 82.3847 179.285 82.3236 179.464 82.3236C179.643 82.3236 179.793 82.3847 179.916 82.5068C180.046 82.629 180.111 82.7877 180.111 82.9831C180.111 83.1704 180.046 83.3292 179.916 83.4595C179.793 83.5898 179.643 83.6549 179.464 83.6549ZM179.464 88.8579C179.285 88.8579 179.13 88.7928 179 88.6625C178.877 88.5322 178.816 88.3734 178.816 88.1862C178.816 87.9907 178.877 87.832 179 87.7098C179.13 87.5877 179.285 87.5266 179.464 87.5266C179.643 87.5266 179.793 87.5877 179.916 87.7098C180.046 87.832 180.111 87.9907 180.111 88.1862C180.111 88.3734 180.046 88.5322 179.916 88.6625C179.793 88.7928 179.643 88.8579 179.464 88.8579ZM184.8 88.8701C184.14 88.8701 183.554 88.6991 183.041 88.3572C182.528 88.007 182.125 87.5103 181.832 86.8671C181.539 86.2157 181.392 85.434 181.392 84.5221C181.392 83.6101 181.539 82.8325 181.832 82.1893C182.125 81.5379 182.528 81.0412 183.041 80.6992C183.554 80.3491 184.14 80.174 184.8 80.174C185.46 80.174 186.046 80.3491 186.559 80.6992C187.072 81.0412 187.475 81.5379 187.768 82.1893C188.069 82.8325 188.22 83.6101 188.22 84.5221C188.22 85.434 188.069 86.2157 187.768 86.8671C187.475 87.5103 187.072 88.007 186.559 88.3572C186.046 88.6991 185.46 88.8701 184.8 88.8701ZM184.8 88.064C185.305 88.064 185.745 87.9297 186.119 87.661C186.494 87.3841 186.787 86.9852 186.998 86.464C187.21 85.9348 187.316 85.2875 187.316 84.5221C187.316 83.7567 187.21 83.1134 186.998 82.5923C186.787 82.0631 186.494 81.6641 186.119 81.3954C185.745 81.1185 185.305 80.9801 184.8 80.9801C184.311 80.9801 183.876 81.1185 183.493 81.3954C183.11 81.6641 182.813 82.0631 182.602 82.5923C182.39 83.1134 182.284 83.7567 182.284 84.5221C182.284 85.2875 182.39 85.9348 182.602 86.464C182.813 86.9852 183.11 87.3841 183.493 87.661C183.876 87.9297 184.311 88.064 184.8 88.064ZM192.887 88.8701C192.227 88.8701 191.641 88.6991 191.128 88.3572C190.615 88.007 190.212 87.5103 189.919 86.8671C189.626 86.2157 189.479 85.434 189.479 84.5221C189.479 83.6101 189.626 82.8325 189.919 82.1893C190.212 81.5379 190.615 81.0412 191.128 80.6992C191.641 80.3491 192.227 80.174 192.887 80.174C193.546 80.174 194.133 80.3491 194.646 80.6992C195.159 81.0412 195.562 81.5379 195.855 82.1893C196.156 82.8325 196.307 83.6101 196.307 84.5221C196.307 85.434 196.156 86.2157 195.855 86.8671C195.562 87.5103 195.159 88.007 194.646 88.3572C194.133 88.6991 193.546 88.8701 192.887 88.8701ZM192.887 88.064C193.392 88.064 193.831 87.9297 194.206 87.661C194.58 87.3841 194.874 86.9852 195.085 86.464C195.297 85.9348 195.403 85.2875 195.403 84.5221C195.403 83.7567 195.297 83.1134 195.085 82.5923C194.874 82.0631 194.58 81.6641 194.206 81.3954C193.831 81.1185 193.392 80.9801 192.887 80.9801C192.398 80.9801 191.963 81.1185 191.58 81.3954C191.197 81.6641 190.9 82.0631 190.688 82.5923C190.477 83.1134 190.371 83.7567 190.371 84.5221C190.371 85.2875 190.477 85.9348 190.688 86.464C190.9 86.9852 191.197 87.3841 191.58 87.661C191.963 87.9297 192.398 88.064 192.887 88.064Z" fill="#2C2B2B"/>
<path d="M253.874 88.8701C253.117 88.8701 252.478 88.7032 251.956 88.3694C251.435 88.0274 251.04 87.5388 250.772 86.9037C250.503 86.2605 250.369 85.491 250.369 84.5953C250.369 83.6264 250.531 82.8162 250.857 82.1648C251.191 81.5053 251.651 81.0086 252.237 80.6748C252.824 80.3409 253.503 80.174 254.277 80.174C254.66 80.174 255.026 80.2106 255.376 80.2839C255.726 80.3572 256.036 80.4753 256.304 80.6381L255.95 81.3465C255.73 81.2 255.478 81.0982 255.193 81.0412C254.908 80.976 254.607 80.9435 254.289 80.9435C253.369 80.9435 252.632 81.2366 252.079 81.8228C251.533 82.4091 251.26 83.2844 251.26 84.4488C251.26 84.6279 251.268 84.8518 251.285 85.1205C251.309 85.3811 251.358 85.6417 251.431 85.9022L251.126 85.6701C251.215 85.2467 251.391 84.8885 251.651 84.5953C251.912 84.2941 252.237 84.0661 252.628 83.9114C253.019 83.7567 253.446 83.6793 253.911 83.6793C254.481 83.6793 254.981 83.7852 255.413 83.9969C255.844 84.2086 256.182 84.5058 256.427 84.8885C256.671 85.2712 256.793 85.7231 256.793 86.2442C256.793 86.7734 256.667 87.2376 256.414 87.6365C256.162 88.0274 255.812 88.3327 255.364 88.5526C254.924 88.7643 254.428 88.8701 253.874 88.8701ZM253.837 88.1251C254.244 88.1251 254.603 88.0518 254.912 87.9052C255.23 87.7505 255.478 87.5348 255.657 87.2579C255.836 86.9729 255.926 86.6432 255.926 86.2686C255.926 85.7068 255.73 85.259 255.34 84.9251C254.957 84.5913 254.436 84.4244 253.776 84.4244C253.337 84.4244 252.954 84.5058 252.628 84.6686C252.302 84.8315 252.046 85.0554 251.859 85.3404C251.671 85.6172 251.578 85.9348 251.578 86.293C251.578 86.6025 251.663 86.8997 251.834 87.1846C252.005 87.4615 252.258 87.6895 252.592 87.8686C252.933 88.0396 253.349 88.1251 253.837 88.1251ZM258.471 83.6549C258.292 83.6549 258.137 83.5898 258.007 83.4595C257.885 83.3292 257.824 83.1704 257.824 82.9831C257.824 82.7877 257.885 82.629 258.007 82.5068C258.137 82.3847 258.292 82.3236 258.471 82.3236C258.65 82.3236 258.801 82.3847 258.923 82.5068C259.053 82.629 259.118 82.7877 259.118 82.9831C259.118 83.1704 259.053 83.3292 258.923 83.4595C258.801 83.5898 258.65 83.6549 258.471 83.6549ZM258.471 88.8579C258.292 88.8579 258.137 88.7928 258.007 88.6625C257.885 88.5322 257.824 88.3734 257.824 88.1862C257.824 87.9907 257.885 87.832 258.007 87.7098C258.137 87.5877 258.292 87.5266 258.471 87.5266C258.65 87.5266 258.801 87.5877 258.923 87.7098C259.053 87.832 259.118 87.9907 259.118 88.1862C259.118 88.3734 259.053 88.5322 258.923 88.6625C258.801 88.7928 258.65 88.8579 258.471 88.8579ZM263.807 88.8701C263.148 88.8701 262.561 88.6991 262.048 88.3572C261.535 88.007 261.132 87.5103 260.839 86.8671C260.546 86.2157 260.4 85.434 260.4 84.5221C260.4 83.6101 260.546 82.8325 260.839 82.1893C261.132 81.5379 261.535 81.0412 262.048 80.6992C262.561 80.3491 263.148 80.174 263.807 80.174C264.467 80.174 265.053 80.3491 265.566 80.6992C266.079 81.0412 266.482 81.5379 266.775 82.1893C267.076 82.8325 267.227 83.6101 267.227 84.5221C267.227 85.434 267.076 86.2157 266.775 86.8671C266.482 87.5103 266.079 88.007 265.566 88.3572C265.053 88.6991 264.467 88.8701 263.807 88.8701ZM263.807 88.064C264.312 88.064 264.752 87.9297 265.126 87.661C265.501 87.3841 265.794 86.9852 266.006 86.464C266.217 85.9348 266.323 85.2875 266.323 84.5221C266.323 83.7567 266.217 83.1134 266.006 82.5923C265.794 82.0631 265.501 81.6641 265.126 81.3954C264.752 81.1185 264.312 80.9801 263.807 80.9801C263.319 80.9801 262.883 81.1185 262.5 81.3954C262.118 81.6641 261.82 82.0631 261.609 82.5923C261.397 83.1134 261.291 83.7567 261.291 84.5221C261.291 85.2875 261.397 85.9348 261.609 86.464C261.82 86.9852 262.118 87.3841 262.5 87.661C262.883 87.9297 263.319 88.064 263.807 88.064ZM271.894 88.8701C271.234 88.8701 270.648 88.6991 270.135 88.3572C269.622 88.007 269.219 87.5103 268.926 86.8671C268.633 86.2157 268.486 85.434 268.486 84.5221C268.486 83.6101 268.633 82.8325 268.926 82.1893C269.219 81.5379 269.622 81.0412 270.135 80.6992C270.648 80.3491 271.234 80.174 271.894 80.174C272.553 80.174 273.14 80.3491 273.653 80.6992C274.166 81.0412 274.569 81.5379 274.862 82.1893C275.163 82.8325 275.314 83.6101 275.314 84.5221C275.314 85.434 275.163 86.2157 274.862 86.8671C274.569 87.5103 274.166 88.007 273.653 88.3572C273.14 88.6991 272.553 88.8701 271.894 88.8701ZM271.894 88.064C272.399 88.064 272.838 87.9297 273.213 87.661C273.588 87.3841 273.881 86.9852 274.092 86.464C274.304 85.9348 274.41 85.2875 274.41 84.5221C274.41 83.7567 274.304 83.1134 274.092 82.5923C273.881 82.0631 273.588 81.6641 273.213 81.3954C272.838 81.1185 272.399 80.9801 271.894 80.9801C271.405 80.9801 270.97 81.1185 270.587 81.3954C270.204 81.6641 269.907 82.0631 269.695 82.5923C269.484 83.1134 269.378 83.7567 269.378 84.5221C269.378 85.2875 269.484 85.9348 269.695 86.464C269.907 86.9852 270.204 87.3841 270.587 87.661C270.97 87.9297 271.405 88.064 271.894 88.064Z" fill="#2C2B2B"/>
<path d="M152.937 3.89467C152.937 3.23557 153.472 2.70127 154.131 2.70127C154.79 2.70127 155.324 3.23557 155.324 3.89467V72.5226H152.937V3.89467Z" fill="#34B009" fill-opacity="0.5" stroke="#34B009" stroke-width="0.407122"/>
<path d="M152.671 14.202C152.671 13.3589 153.354 12.6753 154.197 12.6753C155.041 12.6753 155.724 13.3589 155.724 14.202V72.7258H152.671V14.202Z" fill="#8099FF"/>
<path d="M156.459 43.589C156.459 42.8175 157.085 42.192 157.856 42.192C158.628 42.192 159.253 42.8175 159.253 43.589V72.7262H156.459V43.589Z" fill="#8099FF"/>
<path d="M166.704 64.9628C166.704 64.1913 167.329 63.5659 168.101 63.5659C168.872 63.5659 169.498 64.1913 169.498 64.9628V72.7261H166.704V64.9628Z" fill="#8099FF"/>
<path d="M190.917 56.8204C190.917 56.0489 191.543 55.4235 192.314 55.4235C193.086 55.4235 193.711 56.0489 193.711 56.8204V72.7262H190.917V56.8204Z" fill="#8099FF"/>
<path d="M194.643 39.5176C194.643 38.746 195.268 38.1206 196.04 38.1206C196.811 38.1206 197.437 38.746 197.437 39.5176V72.7259H194.643V39.5176Z" fill="#8099FF"/>
<path d="M198.368 63.9452C198.368 63.1737 198.994 62.5483 199.765 62.5483C200.537 62.5483 201.162 63.1737 201.162 63.9452V72.7263H198.368V63.9452Z" fill="#8099FF"/>
<path d="M202.093 66.9986C202.093 66.2271 202.718 65.6016 203.49 65.6016C204.261 65.6016 204.887 66.2271 204.887 66.9986V72.7263H202.093V66.9986Z" fill="#8099FF"/>
<path d="M217.925 64.9628C217.925 64.1913 218.551 63.5659 219.322 63.5659C220.094 63.5659 220.719 64.1913 220.719 64.9628V72.7261H217.925V64.9628Z" fill="#8099FF"/>
<path d="M234.689 64.9628C234.689 64.1913 235.315 63.5659 236.086 63.5659C236.858 63.5659 237.483 64.1913 237.483 64.9628V72.7261H234.689V64.9628Z" fill="#8099FF"/>
<path d="M255.177 48.6781C255.177 47.9065 255.803 47.2811 256.574 47.2811C257.346 47.2811 257.971 47.9065 257.971 48.6781V72.7262H255.177V48.6781Z" fill="#8099FF"/>
<path d="M258.903 65.98C258.903 65.2084 259.528 64.583 260.3 64.583C261.071 64.583 261.697 65.2084 261.697 65.98V72.7254H258.903V65.98Z" fill="#8099FF"/>
<path d="M262.628 40.5352C262.628 39.7637 263.254 39.1382 264.025 39.1382C264.797 39.1382 265.422 39.7637 265.422 40.5352V72.7258H262.628V40.5352Z" fill="#FF0000" fill-opacity="0.42"/>
<path d="M266.353 2.87656C266.353 2.10504 266.979 1.4796 267.75 1.4796C268.522 1.4796 269.147 2.10504 269.147 2.87656V72.7259H266.353V2.87656Z" fill="#FF0000" fill-opacity="0.42"/>
<path d="M270.078 32.3928C270.078 31.6213 270.704 30.9958 271.475 30.9958C272.247 30.9958 272.872 31.6213 272.872 32.3928V72.7258H270.078V32.3928Z" fill="#FF0000" fill-opacity="0.42"/>
<path d="M273.804 44.6066C273.804 43.8351 274.429 43.2097 275.201 43.2097C275.972 43.2097 276.598 43.8351 276.598 44.6066V72.726H273.804V44.6066Z" fill="#FF0000" fill-opacity="0.42"/>
<path d="M262.593 50.8431C262.593 49.9999 263.277 49.3163 264.12 49.3163C264.963 49.3163 265.647 49.9999 265.647 50.8431V72.7258H262.593V50.8431Z" fill="#8099FF"/>
<path d="M266.665 24.8889C266.665 24.3267 267.12 23.8711 267.682 23.8711C268.245 23.8711 268.7 24.3267 268.7 24.8889V72.7257H266.665V24.8889Z" fill="#8099FF"/>
<path d="M269.718 45.754C269.718 44.9108 270.402 44.2273 271.245 44.2273C272.088 44.2273 272.772 44.9108 272.772 45.754V72.7258H269.718V45.754Z" fill="#8099FF"/>
<path d="M273.789 53.8969C273.789 53.0537 274.473 52.3702 275.316 52.3702C276.159 52.3702 276.843 53.0537 276.843 53.8969V72.7263H273.789V53.8969Z" fill="#8099FF"/>
<path d="M293.361 63.9452C293.361 63.1737 293.986 62.5483 294.758 62.5483C295.529 62.5483 296.155 63.1737 296.155 63.9452V72.7263H293.361V63.9452Z" fill="#8099FF"/>
</svg>
